<?xml version="1.0" encoding="UTF-8"?><svg id="Layer_1" xmlns="http://www.w3.org/2000/svg" viewBox="0 0 431.99 415.58"><defs><style>.cls-1{fill:#fff;}.cls-2{fill:#9ce4f8;}.cls-3{fill:#2afffc;}.cls-4{fill:#71e4bf;}.cls-4,.cls-5{stroke:#000;stroke-miterlimit:10;stroke-width:10px;}.cls-5{fill:none;}</style></defs><circle class="cls-3" cx="204.71" cy="150.3" r="146.24"/><circle class="cls-1" cx="207.59" cy="150.42" r="123.78"/><path class="cls-2" d="m157.42,261.59c-41.15-15.31-70.89-59.54-70.89-111.72,0-44.75,21.89-83.67,54.08-103.49-22.37,23.19-36.78,59.64-36.78,100.65,0,50.53,21.89,94.16,53.59,114.56Z"/><circle class="cls-5" cx="205" cy="149.1" r="123.81"/><circle class="cls-5" cx="206.33" cy="151.21" r="146.21"/><polygon class="cls-4" points="129.89 155.48 188.25 211.93 277.7 125.66 249.79 97.75 189.52 160.55 155.27 130.74 129.89 155.48"/><g><path d="m18.52,326.96h10.97l16.95,52.3h-9.9l-7.87-27.81c-1.58-5.52-3.25-11.45-4.67-17.24h-.32c-1.47,5.79-3.04,11.72-4.61,17.24l-7.97,27.81H1.57l16.95-52.3Zm-6.88,30.83h24.52v7.35H11.63v-7.35Z"/><path d="m50.24,326.96h9.9l7.31,26.26c1.69,5.93,2.86,11.08,4.6,16.99h.32c1.74-5.9,2.99-11.06,4.6-16.99l7.25-26.26h9.52l-16.17,52.3h-11.07l-16.27-52.3Z"/><path d="m114.51,326.96h10.97l16.95,52.3h-9.9l-7.87-27.81c-1.58-5.52-3.25-11.45-4.67-17.24h-.32c-1.47,5.79-3.04,11.72-4.61,17.24l-7.97,27.81h-9.52l16.95-52.3Zm-6.88,30.83h24.52v7.35h-24.52v-7.35Z"/><path d="m150.75,371.44h12.6v-36.66h-12.6v-7.82h34.5v7.82h-12.6v36.66h12.6v7.82h-34.5v-7.82Z"/><path d="m201.6,326.96h9.25v44.48h24.54v7.82h-33.79v-52.3Z"/><path d="m258.51,326.96h10.97l16.95,52.3h-9.9l-7.87-27.81c-1.58-5.52-3.25-11.45-4.67-17.24h-.32c-1.47,5.79-3.04,11.72-4.61,17.24l-7.97,27.81h-9.52l16.95-52.3Zm-6.88,30.83h24.52v7.35h-24.52v-7.35Z"/><path d="m294.89,326.96h16.23c10.78,0,18.56,3.28,18.56,12.86,0,4.94-2.87,9.75-9.05,11.35v.32c7.56,1.29,11.75,5.33,11.75,12.41,0,10.47-8.35,15.36-19.91,15.36h-17.58v-52.3Zm15.4,21.49c7.32,0,10.3-2.65,10.3-7.52s-3.34-6.56-10.1-6.56h-6.35v14.07h6.15Zm1.21,23.39c7.67,0,11.78-2.64,11.78-8.55,0-5.51-3.96-7.77-11.78-7.77h-7.37v16.32h7.37Z"/><path d="m345.6,326.96h9.25v44.48h24.54v7.82h-33.79v-52.3Z"/><path d="m392.23,326.96h33.54v7.82h-24.23v13.38h20.53v7.82h-20.53v15.46h25.03v7.82h-34.34v-52.3Z"/></g></svg>